# xmcd
#
# Track frame offsets: 
#        150
#        22575
#        45122
#        71135
#        96837
#        128807
#        150727
#        178787
#        198747
#        221462
#
# Disc length: 3232 seconds
#
# Revision: 1
# Processed by: cddbd v1.5.2PL0 Copyright (c) Steve Scherf et al.
# Submitted via: ExactAudioCopy v0.99pb5
#
DISCID=810c9e0a
DTITLE=Various Artist - Tinh Ca 20 - Doi Bong
DYEAR=1996
DGENRE=Hai ngoai
TTITLE0=Doi bong-Thien Trang
TTITLE1=Sau tim thiep hong-Che Linh
TTITLE2=Thuong ve mien dat lanh-Thien Trang
TTITLE3=Nguoi tinh va que huong-Tuan Vu
TTITLE4=Neu hai dua minh-Thien Trang
TTITLE5=Tam hon co don-Che Linh
TTITLE6=Neu ai co hoi-Thien Trang
TTITLE7=Nha anh nha em-Tuan Vu
TTITLE8=Ngoai o buon-Thien Trang and Tuan Vu
TTITLE9=Han tinh-Thien Trang
EXTD=
EXTT0=
EXTT1=
EXTT2=
EXTT3=
EXTT4=
EXTT5=
EXTT6=
EXTT7=
EXTT8=
EXTT9=
PLAYORDER=
